<svg xmlns="http://www.w3.org/2000/svg" viewBox="0 0 512 512">
  <rect width="512" height="512" rx="116" fill="#FDFAF5"/>
  <rect x="24" y="24" width="464" height="464" rx="100" fill="#F0EBE1"/>
  <circle cx="256" cy="256" r="160" fill="#C8A96E"/>
  <path d="M256 130c44 32 64 81 64 132 0 19-3 36-8 52H200c-5-16-8-33-8-52 0-51 20-100 64-132z" fill="#FDFAF5"/>
  <circle cx="256" cy="237" r="23" fill="#C8A96E"/>
  <path d="M198 322l-36 46 51-12zM314 322l36 46-51-12z" fill="#FDFAF5"/>
  <path d="M256 330c12 16 12 42 0 66-12-24-12-50 0-66z" fill="#F0B45C"/>
</svg>
